<?xml version="1.0" encoding="UTF-8"?>
<svg xmlns="http://www.w3.org/2000/svg" xmlns:xlink="http://www.w3.org/1999/xlink" width="308px" height="193px" viewBox="0 0 308 193" version="1.1">
<g id="surface1">
<path style=" stroke:none;fill-rule:nonzero;fill:rgb(0%,0%,0%);fill-opacity:1;" d="M 57.75 96.46875 L 57.75 192.9375 L 250.25 192.9375 L 250.25 0 L 57.75 0 Z M 241.550781 96.46875 L 241.550781 184.21875 L 66.449219 184.21875 L 66.40625 96.625 C 66.390625 48.449219 66.40625 8.9375 66.449219 8.828125 C 66.496094 8.675781 84.097656 8.644531 154.03125 8.675781 L 241.550781 8.722656 Z M 241.550781 96.46875 "/>
<path style=" stroke:none;fill-rule:nonzero;fill:rgb(0%,0%,0%);fill-opacity:1;" d="M 119.425781 48.542969 C 106.460938 50.316406 97.175781 58.515625 95.542969 69.644531 C 95.203125 71.941406 95.3125 75.816406 95.789062 77.992188 C 96.789062 82.6875 99.4375 87.144531 103.117188 90.324219 C 106.660156 93.367188 109.371094 94.832031 120.660156 99.757812 C 128.375 103.121094 134.304688 105.992188 136.445312 107.398438 C 137.96875 108.414062 139.984375 110.359375 140.832031 111.65625 C 142.21875 113.789062 142.789062 115.980469 142.804688 119.160156 C 142.804688 123.296875 141.558594 126.414062 138.847656 129.128906 C 135.320312 132.632812 130.46875 134.269531 123.554688 134.285156 C 120.566406 134.285156 118.457031 134.039062 115.699219 133.359375 C 110.003906 131.96875 103.859375 128.527344 99.390625 124.222656 L 97.835938 122.707031 L 94.757812 126.304688 C 93.0625 128.265625 91.492188 130.101562 91.261719 130.378906 C 90.96875 130.734375 90.875 130.949219 90.96875 131.121094 C 91.230469 131.570312 94.339844 134.332031 96.097656 135.660156 C 102.503906 140.503906 109.863281 143.453125 117.902344 144.394531 C 120.195312 144.65625 125.941406 144.703125 128.050781 144.472656 C 132.871094 143.933594 136.242188 142.976562 140.21875 141 C 143.726562 139.269531 146.390625 137.265625 148.703125 134.640625 C 151.90625 130.964844 153.863281 126.785156 154.632812 121.859375 C 154.878906 120.316406 154.878906 115.792969 154.632812 114.082031 C 153.554688 106.6875 149.566406 100.992188 142.480469 96.761719 C 139.769531 95.140625 137.105469 93.90625 127.972656 89.988281 C 116.609375 85.09375 114.5 84.027344 111.679688 81.667969 C 109.753906 80.0625 108.152344 77.652344 107.554688 75.476562 C 107.136719 73.980469 107.167969 70.277344 107.613281 68.640625 C 108.941406 63.761719 112.929688 60.429688 119.042969 59.085938 C 120.472656 58.777344 121.089844 58.746094 124.433594 58.730469 C 128.375 58.730469 129.191406 58.808594 132.039062 59.519531 C 136.121094 60.535156 140.480469 62.914062 144.265625 66.214844 C 145.34375 67.15625 145.589844 67.296875 145.746094 67.128906 C 145.851562 67.003906 147.179688 65.414062 148.6875 63.59375 C 150.195312 61.769531 151.535156 60.152344 151.660156 59.996094 C 151.875 59.75 151.84375 59.671875 151.289062 59.101562 C 149.195312 56.941406 145.238281 54.128906 141.835938 52.417969 C 138.046875 50.488281 135.058594 49.484375 131.039062 48.773438 C 128.605469 48.328125 121.90625 48.203125 119.425781 48.542969 Z M 119.425781 48.542969 "/>
<path style=" stroke:none;fill-rule:nonzero;fill:rgb(0%,0%,0%);fill-opacity:1;" d="M 177.640625 76.742188 C 177.59375 76.851562 177.578125 85.804688 177.59375 96.625 L 177.640625 116.304688 L 188.417969 116.304688 L 188.417969 76.636719 L 183.058594 76.589844 C 178.855469 76.558594 177.683594 76.589844 177.640625 76.742188 Z M 177.640625 76.742188 "/>
<path style=" stroke:none;fill-rule:nonzero;fill:rgb(0%,0%,0%);fill-opacity:1;" d="M 190.804688 96.46875 L 190.804688 116.226562 L 201.585938 116.226562 L 201.585938 76.710938 L 190.804688 76.710938 Z M 190.804688 96.46875 "/>
<path style=" stroke:none;fill-rule:nonzero;fill:rgb(0%,0%,0%);fill-opacity:1;" d="M 204.050781 96.46875 L 204.050781 116.226562 L 214.828125 116.226562 L 214.828125 76.710938 L 204.050781 76.710938 Z M 204.050781 96.46875 "/>
</g>
</svg>
