<?xml version="1.0" encoding="UTF-8"?>
<svg xmlns="http://www.w3.org/2000/svg" xmlns:xlink="http://www.w3.org/1999/xlink" width="308px" height="231px" viewBox="0 0 308 231" version="1.1">
<defs>
<clipPath id="clip1">
  <path d="M 81.050781 43.3125 L 226.949219 43.3125 L 226.949219 187.6875 L 81.050781 187.6875 Z M 81.050781 43.3125 "/>
</clipPath>
<clipPath id="clip2">
  <path d="M 106.574219 79.40625 L 154.664062 79.40625 L 154.664062 151.59375 L 106.574219 151.59375 Z M 106.574219 79.40625 "/>
</clipPath>
<clipPath id="clip3">
  <path d="M 171.703125 100.640625 L 179.9375 100.640625 L 179.9375 130.363281 L 171.703125 130.363281 Z M 171.703125 100.640625 "/>
</clipPath>
<clipPath id="clip4">
  <path d="M 171.703125 100.640625 L 180.746094 100.640625 L 180.746094 130.363281 L 171.703125 130.363281 Z M 171.703125 100.640625 "/>
</clipPath>
<clipPath id="clip5">
  <path d="M 181.558594 100.640625 L 190 100.640625 L 190 130.363281 L 181.558594 130.363281 Z M 181.558594 100.640625 "/>
</clipPath>
<clipPath id="clip6">
  <path d="M 181 100.640625 L 190 100.640625 L 190 130.363281 L 181 130.363281 Z M 181 100.640625 "/>
</clipPath>
<clipPath id="clip7">
  <path d="M 191.285156 100.640625 L 200 100.640625 L 200 130.363281 L 191.285156 130.363281 Z M 191.285156 100.640625 "/>
</clipPath>
</defs>
<g id="surface1">
<rect x="0" y="0" width="308" height="231" style="fill:rgb(0%,0%,0%);fill-opacity:1;stroke:none;"/>
<g clip-path="url(#clip1)" clip-rule="nonzero">
<path style=" stroke:none;fill-rule:nonzero;fill:rgb(100%,100%,100%);fill-opacity:1;" d="M 81.8125 187.6875 L 81.8125 43.3125 L 226.1875 43.3125 L 226.1875 187.6875 Z M 219.679688 181.179688 L 219.679688 49.820312 L 88.320312 49.820312 L 88.320312 181.179688 Z M 219.679688 181.179688 "/>
</g>
<g clip-path="url(#clip2)" clip-rule="nonzero">
<path style=" stroke:none;fill-rule:nonzero;fill:rgb(100%,100%,100%);fill-opacity:1;" d="M 130.992188 151.59375 C 126.105469 151.59375 121.578125 150.671875 117.402344 148.832031 C 113.226562 146.992188 109.617188 144.484375 106.574219 141.296875 L 111.882812 135.140625 C 114.359375 137.757812 117.277344 139.867188 120.628906 141.464844 C 123.996094 143.050781 127.488281 143.84375 131.097656 143.84375 C 135.695312 143.84375 139.269531 142.796875 141.820312 140.703125 C 144.367188 138.621094 145.640625 135.882812 145.640625 132.484375 C 145.640625 130.714844 145.34375 129.210938 144.75 127.960938 C 144.140625 126.730469 143.328125 125.667969 142.308594 124.777344 C 141.273438 123.898438 140.050781 123.109375 138.636719 122.398438 C 137.21875 121.691406 135.695312 120.949219 134.070312 120.171875 L 124.089844 115.820312 C 122.460938 115.109375 120.800781 114.261719 119.101562 113.269531 C 117.402344 112.28125 115.878906 111.078125 114.539062 109.660156 C 113.191406 108.246094 112.097656 106.5625 111.246094 104.609375 C 110.394531 102.667969 109.972656 100.425781 109.972656 97.878906 C 109.972656 95.257812 110.523438 92.816406 111.628906 90.554688 C 112.71875 88.289062 114.238281 86.320312 116.195312 84.648438 C 118.132812 82.992188 120.433594 81.703125 123.09375 80.785156 C 125.738281 79.867188 128.65625 79.40625 131.839844 79.40625 C 136.015625 79.40625 139.871094 80.207031 143.414062 81.804688 C 146.949219 83.390625 149.957031 85.457031 152.4375 88.003906 L 147.660156 93.734375 C 145.535156 91.683594 143.183594 90.074219 140.609375 88.898438 C 138.015625 87.734375 135.09375 87.15625 131.839844 87.15625 C 127.949219 87.15625 124.820312 88.054688 122.457031 89.851562 C 120.078125 91.664062 118.886719 94.164062 118.886719 97.34375 C 118.886719 99.046875 119.230469 100.472656 119.90625 101.636719 C 120.570312 102.808594 121.472656 103.835938 122.605469 104.714844 C 123.738281 105.605469 124.976562 106.382812 126.320312 107.050781 C 127.664062 107.730469 129.042969 108.351562 130.460938 108.917969 L 140.332031 113.164062 C 142.3125 114.015625 144.191406 114.984375 145.957031 116.074219 C 147.726562 117.179688 149.25 118.449219 150.523438 119.894531 C 151.800781 121.355469 152.808594 123.050781 153.558594 124.992188 C 154.296875 126.941406 154.664062 129.195312 154.664062 131.742188 C 154.664062 134.503906 154.121094 137.085938 153.027344 139.492188 C 151.925781 141.898438 150.347656 144 148.292969 145.796875 C 146.242188 147.609375 143.765625 149.027344 140.863281 150.042969 C 137.964844 151.078125 134.671875 151.59375 130.992188 151.59375 Z M 130.992188 151.59375 "/>
</g>
<g clip-path="url(#clip3)" clip-rule="nonzero">
<path style=" stroke:none;fill-rule:nonzero;fill:rgb(100%,100%,100%);fill-opacity:1;" d="M 171.703125 100.640625 L 179.828125 100.640625 L 179.828125 130.359375 L 171.703125 130.359375 Z M 171.703125 100.640625 "/>
</g>
<g clip-path="url(#clip4)" clip-rule="nonzero">
<path style="fill:none;stroke-width:1;stroke-linecap:butt;stroke-linejoin:miter;stroke:rgb(100%,100%,100%);stroke-opacity:1;stroke-miterlimit:4;" d="M -0.00633827 0.000700398 L 18.002308 0.000700398 L 18.002308 65.870786 L -0.00633827 65.870786 Z M -0.00633827 0.000700398 " transform="matrix(0.451172,0,0,0.451172,171.705985,100.640309)"/>
</g>
<g clip-path="url(#clip5)" clip-rule="nonzero">
<path style=" stroke:none;fill-rule:nonzero;fill:rgb(100%,100%,100%);fill-opacity:0.74902;" d="M 181.613281 100.640625 L 189.734375 100.640625 L 189.734375 130.359375 L 181.613281 130.359375 Z M 181.613281 100.640625 "/>
</g>
<g clip-path="url(#clip6)" clip-rule="nonzero">
<path style="fill:none;stroke-width:1;stroke-linecap:butt;stroke-linejoin:miter;stroke:rgb(100%,100%,100%);stroke-opacity:1;stroke-miterlimit:4;" d="M 21.959015 0.000700398 L 39.959003 0.000700398 L 39.959003 65.870786 L 21.959015 65.870786 Z M 21.959015 0.000700398 " transform="matrix(0.451172,0,0,0.451172,171.705985,100.640309)"/>
</g>
<g clip-path="url(#clip7)" clip-rule="nonzero">
<path style="fill-rule:nonzero;fill:rgb(100%,100%,100%);fill-opacity:0.501961;stroke-width:1;stroke-linecap:butt;stroke-linejoin:miter;stroke:rgb(100%,100%,100%);stroke-opacity:1;stroke-miterlimit:4;" d="M 43.91571 0.000700398 L 61.924356 0.000700398 L 61.924356 65.870786 L 43.91571 65.870786 Z M 43.91571 0.000700398 " transform="matrix(0.451172,0,0,0.451172,171.705985,100.640309)"/>
</g>
</g>
</svg>
